M48
;Layer_Color=6321
;FILE_FORMAT=2:5
INCH,LZ
;TYPE=PLATED
T1F00S00C0.02362
T2F00S00C0.03150
T3F00S00C0.03543
T4F00S00C0.04724
T5F00S00C0.05512
T6F00S00C0.14961
%
T01
X0112205Y0137795
X0137795Y0112205
X015748
X0177165
X019685
X0216535
X0236221
X0255906
X027559
X0295276
X0314961
X0334646
X0354331
X0374016
X0399606Y0137795
Y015748
Y0177165
Y019685
Y0216535
Y0236221
Y0255906
Y027559
X0374016Y0301181
X0354331
X0334646
X0314961
X0319882Y022441
X0337425Y0237425
Y0198425
X0314425Y0194425
X0306425Y0232425
X0276425Y0231925
X0268925Y0234425
X0265225Y0219225
X0265425Y0192425
X0260425Y0196425
X0255906Y0179134
X0271425Y0172925
X0283925
X027559Y0301181
X0255906
X0236221
X0216535
X019685
X0177165
X015748
X0295276
X0137795
X0112205Y027559
Y0255906
Y0236221
Y0216535
Y019685
Y0177165
Y015748
T02
X0239202Y018999
X0244094Y0186236
X0262019Y0183876
X0267717Y0186236
X0272609Y018999
X0276363Y0194882
X0278723Y0212807
X0272609Y0223396
X0267717Y022715
X0249792Y022951
X0244094Y022715
X0239202Y0223396
X0235448Y0218504
X0233088Y0200579
T03
X0194583Y0229929
X0204425
X0214268
Y0242921
X0204425
X0194583
T04
X036811Y0206693
X0143701
T05
X034811Y0186693
X038811
Y0226693
X034811
X0163701
Y0186693
X0123701
Y0226693
T06
X0117126Y0117126
X0394685
Y029626
X0117126
M30
