G04*
G04 #@! TF.GenerationSoftware,Altium Limited,CircuitStudio,1.5.2 (30)*
G04*
G04 Layer_Physical_Order=2*
G04 Layer_Color=12500520*
%FSLAX25Y25*%
%MOIN*%
G70*
G01*
G75*
%ADD18C,0.01600*%
%ADD21C,0.00500*%
%ADD22C,0.08661*%
%ADD23C,0.09449*%
%ADD24C,0.05906*%
%ADD25C,0.05118*%
%ADD26C,0.23622*%
%ADD27C,0.03937*%
G36*
X117126Y314961D02*
Y314961D01*
X394685D01*
Y314961D01*
X395185Y314968D01*
X397131Y314840D01*
X399536Y314362D01*
X401857Y313574D01*
X404056Y312490D01*
X406094Y311128D01*
X407937Y309512D01*
X409553Y307669D01*
X410915Y305630D01*
X411999Y303432D01*
X412787Y301110D01*
X413266Y298706D01*
X413423Y296300D01*
X413386Y296260D01*
X413386D01*
X413386Y117126D01*
X413386D01*
X413393Y116626D01*
X413266Y114680D01*
X412787Y112276D01*
X411999Y109954D01*
X410915Y107755D01*
X409553Y105717D01*
X407937Y103874D01*
X406094Y102258D01*
X404056Y100896D01*
X401857Y99812D01*
X399535Y99024D01*
X397131Y98545D01*
X395182Y98418D01*
X394685Y98425D01*
Y98425D01*
X117126D01*
Y98425D01*
X116626Y98418D01*
X114680Y98545D01*
X112276Y99024D01*
X109954Y99812D01*
X107755Y100896D01*
X105717Y102258D01*
X103874Y103874D01*
X102258Y105717D01*
X100896Y107755D01*
X99812Y109954D01*
X99024Y112276D01*
X98545Y114680D01*
X98388Y117086D01*
X98425Y117126D01*
X98425D01*
Y296260D01*
X98425D01*
X98418Y296760D01*
X98545Y298706D01*
X99024Y301110D01*
X99812Y303432D01*
X100896Y305630D01*
X102258Y307669D01*
X103874Y309512D01*
X105717Y311128D01*
X107755Y312490D01*
X109954Y313574D01*
X112276Y314362D01*
X114680Y314841D01*
X116629Y314968D01*
X117126Y314961D01*
D02*
G37*
%LPC*%
G36*
X159862Y161308D02*
X158678Y161153D01*
X157574Y160695D01*
X156626Y159968D01*
X155899Y159020D01*
X155442Y157917D01*
X155286Y156732D01*
X155442Y155548D01*
X155899Y154444D01*
X156626Y153497D01*
X157574Y152769D01*
X158678Y152312D01*
X159862Y152156D01*
X161047Y152312D01*
X162150Y152769D01*
X163098Y153497D01*
X163825Y154444D01*
X164282Y155548D01*
X164438Y156732D01*
X164282Y157917D01*
X163825Y159020D01*
X163098Y159968D01*
X162150Y160695D01*
X161047Y161153D01*
X159862Y161308D01*
D02*
G37*
G36*
X204425Y233513D02*
X203498Y233390D01*
X202634Y233032D01*
X201891Y232463D01*
X201322Y231721D01*
X200964Y230857D01*
X200842Y229929D01*
X200964Y229002D01*
X201322Y228137D01*
X201891Y227395D01*
X202634Y226826D01*
X203498Y226468D01*
X204425Y226346D01*
X205353Y226468D01*
X206217Y226826D01*
X206959Y227395D01*
X207528Y228137D01*
X207887Y229002D01*
X208009Y229929D01*
X207887Y230857D01*
X207528Y231721D01*
X206959Y232463D01*
X206217Y233032D01*
X205353Y233390D01*
X204425Y233513D01*
D02*
G37*
G36*
X194583D02*
X193655Y233390D01*
X192791Y233032D01*
X192049Y232463D01*
X191479Y231721D01*
X191121Y230857D01*
X190999Y229929D01*
X191121Y229002D01*
X191479Y228137D01*
X192049Y227395D01*
X192791Y226826D01*
X193655Y226468D01*
X194583Y226346D01*
X195510Y226468D01*
X196374Y226826D01*
X197116Y227395D01*
X197686Y228137D01*
X198044Y229002D01*
X198166Y229929D01*
X198044Y230857D01*
X197686Y231721D01*
X197116Y232463D01*
X196374Y233032D01*
X195510Y233390D01*
X194583Y233513D01*
D02*
G37*
G36*
X233088Y203765D02*
X232264Y203657D01*
X231495Y203339D01*
X230835Y202832D01*
X230329Y202172D01*
X230011Y201404D01*
X229902Y200579D01*
X230011Y199754D01*
X230329Y198986D01*
X230835Y198326D01*
X231495Y197820D01*
X232264Y197501D01*
X233088Y197393D01*
X233913Y197501D01*
X234682Y197820D01*
X235341Y198326D01*
X235848Y198986D01*
X236166Y199754D01*
X236275Y200579D01*
X236166Y201404D01*
X235848Y202172D01*
X235341Y202832D01*
X234682Y203339D01*
X233913Y203657D01*
X233088Y203765D01*
D02*
G37*
G36*
X204724Y211468D02*
X203489Y211305D01*
X202337Y210828D01*
X201348Y210069D01*
X200589Y209080D01*
X200112Y207929D01*
X199950Y206693D01*
X200112Y205457D01*
X200589Y204306D01*
X201348Y203317D01*
X202337Y202558D01*
X203489Y202081D01*
X204724Y201918D01*
X205960Y202081D01*
X207112Y202558D01*
X208101Y203317D01*
X208859Y204306D01*
X209336Y205457D01*
X209499Y206693D01*
X209336Y207929D01*
X208859Y209080D01*
X208101Y210069D01*
X207112Y210828D01*
X205960Y211305D01*
X204724Y211468D01*
D02*
G37*
G36*
X283925Y175516D02*
X283255Y175428D01*
X282630Y175169D01*
X282093Y174757D01*
X281783Y174353D01*
X273567D01*
X273257Y174757D01*
X272721Y175169D01*
X272096Y175428D01*
X271425Y175516D01*
X270755Y175428D01*
X270130Y175169D01*
X269593Y174757D01*
X269182Y174221D01*
X268923Y173596D01*
X268834Y172925D01*
X268923Y172255D01*
X269182Y171630D01*
X269593Y171093D01*
X270130Y170682D01*
X270755Y170423D01*
X271425Y170334D01*
X272096Y170423D01*
X272721Y170682D01*
X273257Y171093D01*
X273567Y171498D01*
X281783D01*
X282093Y171093D01*
X282630Y170682D01*
X283255Y170423D01*
X283925Y170334D01*
X284596Y170423D01*
X285221Y170682D01*
X285757Y171093D01*
X286169Y171630D01*
X286428Y172255D01*
X286516Y172925D01*
X286428Y173596D01*
X286169Y174221D01*
X285757Y174757D01*
X285221Y175169D01*
X284596Y175428D01*
X283925Y175516D01*
D02*
G37*
G36*
X239202Y193176D02*
X238377Y193067D01*
X237609Y192749D01*
X236949Y192243D01*
X236443Y191583D01*
X236124Y190814D01*
X236016Y189990D01*
X236124Y189165D01*
X236443Y188397D01*
X236949Y187737D01*
X237609Y187230D01*
X238377Y186912D01*
X239202Y186803D01*
X240027Y186912D01*
X240520Y187116D01*
X240978Y186765D01*
X240908Y186236D01*
X241017Y185411D01*
X241335Y184643D01*
X241841Y183983D01*
X242501Y183476D01*
X243270Y183158D01*
X244094Y183049D01*
X244919Y183158D01*
X245688Y183476D01*
X246348Y183983D01*
X246854Y184643D01*
X247172Y185411D01*
X247281Y186236D01*
X247172Y187060D01*
X246854Y187829D01*
X246347Y188489D01*
X245688Y188995D01*
X244919Y189313D01*
X244094Y189422D01*
X243270Y189313D01*
X242777Y189109D01*
X242319Y189461D01*
X242389Y189990D01*
X242280Y190814D01*
X241962Y191583D01*
X241455Y192243D01*
X240795Y192749D01*
X240027Y193067D01*
X239202Y193176D01*
D02*
G37*
G36*
X204425Y246505D02*
X203498Y246383D01*
X202634Y246025D01*
X201891Y245455D01*
X201322Y244713D01*
X200964Y243849D01*
X200842Y242921D01*
X200964Y241994D01*
X201322Y241130D01*
X201891Y240387D01*
X202634Y239818D01*
X203498Y239460D01*
X204425Y239338D01*
X205353Y239460D01*
X206217Y239818D01*
X206959Y240387D01*
X207528Y241130D01*
X207887Y241994D01*
X208009Y242921D01*
X207887Y243849D01*
X207528Y244713D01*
X206959Y245455D01*
X206217Y246025D01*
X205353Y246383D01*
X204425Y246505D01*
D02*
G37*
G36*
X194583D02*
X193655Y246383D01*
X192791Y246025D01*
X192049Y245455D01*
X191479Y244713D01*
X191121Y243849D01*
X190999Y242921D01*
X191121Y241994D01*
X191479Y241130D01*
X192049Y240387D01*
X192791Y239818D01*
X193655Y239460D01*
X194583Y239338D01*
X195510Y239460D01*
X196374Y239818D01*
X197116Y240387D01*
X197686Y241130D01*
X198044Y241994D01*
X198166Y242921D01*
X198044Y243849D01*
X197686Y244713D01*
X197116Y245455D01*
X196374Y246025D01*
X195510Y246383D01*
X194583Y246505D01*
D02*
G37*
G36*
X351949Y261230D02*
X350764Y261074D01*
X349661Y260617D01*
X348713Y259889D01*
X347986Y258942D01*
X347529Y257838D01*
X347373Y256653D01*
X347529Y255469D01*
X347986Y254365D01*
X348713Y253418D01*
X349661Y252691D01*
X350764Y252233D01*
X351949Y252077D01*
X353133Y252233D01*
X354237Y252691D01*
X355185Y253418D01*
X355912Y254365D01*
X356369Y255469D01*
X356525Y256653D01*
X356369Y257838D01*
X355912Y258942D01*
X355185Y259889D01*
X354237Y260617D01*
X353133Y261074D01*
X351949Y261230D01*
D02*
G37*
G36*
X214268Y246505D02*
X213340Y246383D01*
X212476Y246025D01*
X211734Y245455D01*
X211164Y244713D01*
X210806Y243849D01*
X210684Y242921D01*
X210806Y241994D01*
X211164Y241130D01*
X211734Y240387D01*
X212476Y239818D01*
X213340Y239460D01*
X214268Y239338D01*
X215195Y239460D01*
X216059Y239818D01*
X216802Y240387D01*
X217371Y241130D01*
X217729Y241994D01*
X217851Y242921D01*
X217729Y243849D01*
X217371Y244713D01*
X216802Y245455D01*
X216059Y246025D01*
X215195Y246383D01*
X214268Y246505D01*
D02*
G37*
G36*
X163701Y232063D02*
X162311Y231880D01*
X161016Y231344D01*
X160813Y231188D01*
X160531Y231205D01*
X160205Y231352D01*
X160192Y231384D01*
X160118Y231415D01*
X160071Y231479D01*
X159896Y231507D01*
X159733Y231575D01*
X127669D01*
X127505Y231507D01*
X127330Y231479D01*
X127283Y231415D01*
X127210Y231384D01*
X127196Y231352D01*
X126871Y231205D01*
X126589Y231188D01*
X126386Y231344D01*
X125091Y231880D01*
X123701Y232063D01*
X122311Y231880D01*
X121016Y231344D01*
X119903Y230490D01*
X119050Y229378D01*
X118513Y228083D01*
X118330Y226693D01*
X118513Y225303D01*
X119050Y224008D01*
X119903Y222896D01*
X120439Y222485D01*
X120466Y221997D01*
X120394Y221823D01*
X120288Y221665D01*
X120301Y221600D01*
X120276Y221538D01*
Y191848D01*
X120301Y191786D01*
X120288Y191721D01*
X120394Y191563D01*
X120466Y191388D01*
X120439Y190901D01*
X119903Y190490D01*
X119050Y189378D01*
X118513Y188083D01*
X118330Y186693D01*
X118513Y185303D01*
X119050Y184008D01*
X119903Y182896D01*
X121016Y182042D01*
X122311Y181506D01*
X123701Y181323D01*
X125091Y181506D01*
X126386Y182042D01*
X127480Y182881D01*
X127508Y182899D01*
X127541Y182911D01*
X128011Y182966D01*
X128149Y182909D01*
X128261Y182810D01*
X128369Y182817D01*
X128470Y182776D01*
X158932D01*
X159032Y182817D01*
X159140Y182810D01*
X159253Y182909D01*
X159391Y182966D01*
X159860Y182911D01*
X159894Y182899D01*
X159922Y182881D01*
X161016Y182042D01*
X162311Y181506D01*
X163701Y181323D01*
X165091Y181506D01*
X166386Y182042D01*
X167498Y182896D01*
X168352Y184008D01*
X168888Y185303D01*
X169071Y186693D01*
X168888Y188083D01*
X168538Y188928D01*
X168634Y189489D01*
X168739Y189581D01*
X168771Y189597D01*
X168884Y189644D01*
X168926Y189745D01*
X169008Y189816D01*
X169017Y189965D01*
X169075Y190104D01*
Y223282D01*
X169017Y223420D01*
X169008Y223569D01*
X168926Y223641D01*
X168884Y223742D01*
X168771Y223788D01*
X168739Y223805D01*
X168634Y223897D01*
X168538Y224458D01*
X168888Y225303D01*
X169071Y226693D01*
X168888Y228083D01*
X168352Y229378D01*
X167498Y230490D01*
X166386Y231344D01*
X165091Y231880D01*
X163701Y232063D01*
D02*
G37*
G36*
X214268Y233513D02*
X213340Y233390D01*
X212476Y233032D01*
X211734Y232463D01*
X211164Y231721D01*
X210806Y230857D01*
X210684Y229929D01*
X210806Y229002D01*
X211164Y228137D01*
X211734Y227395D01*
X212476Y226826D01*
X213340Y226468D01*
X214268Y226346D01*
X215195Y226468D01*
X216059Y226826D01*
X216802Y227395D01*
X217371Y228137D01*
X217729Y229002D01*
X217851Y229929D01*
X217729Y230857D01*
X217371Y231721D01*
X216802Y232463D01*
X216059Y233032D01*
X215195Y233390D01*
X214268Y233513D01*
D02*
G37*
G36*
X337425Y240016D02*
X336755Y239928D01*
X336130Y239669D01*
X335593Y239257D01*
X335182Y238720D01*
X334923Y238096D01*
X334835Y237425D01*
X334771Y237353D01*
X270925D01*
X270925Y237353D01*
X270379Y237244D01*
X269916Y236934D01*
X269817Y236836D01*
X269596Y236928D01*
X268925Y237016D01*
X268255Y236928D01*
X267630Y236669D01*
X267093Y236257D01*
X266682Y235720D01*
X266423Y235096D01*
X266335Y234425D01*
X266423Y233755D01*
X266682Y233130D01*
X267093Y232593D01*
X267630Y232182D01*
X268255Y231923D01*
X268925Y231835D01*
X269431Y231901D01*
X273916Y227416D01*
X273916Y227416D01*
X274194Y227230D01*
X274379Y227106D01*
X274925Y226998D01*
X274925Y226998D01*
X318215D01*
X318384Y226498D01*
X318050Y226241D01*
X317740Y225837D01*
X279909D01*
X279909Y225837D01*
X279363Y225728D01*
X278900Y225419D01*
X278900Y225419D01*
X276212Y222730D01*
X275738Y222964D01*
X275795Y223396D01*
X275687Y224221D01*
X275368Y224989D01*
X274862Y225649D01*
X274202Y226156D01*
X273433Y226474D01*
X272609Y226583D01*
X271784Y226474D01*
X271291Y226270D01*
X270833Y226621D01*
X270903Y227150D01*
X270794Y227975D01*
X270476Y228743D01*
X269970Y229403D01*
X269310Y229910D01*
X268541Y230228D01*
X267717Y230336D01*
X266892Y230228D01*
X266123Y229910D01*
X265463Y229403D01*
X264957Y228743D01*
X264639Y227975D01*
X264530Y227150D01*
X264639Y226325D01*
X264913Y225663D01*
X264489Y225380D01*
X259350Y230519D01*
X258887Y230829D01*
X258340Y230938D01*
X258340Y230938D01*
X252620D01*
X252551Y231103D01*
X252045Y231763D01*
X251385Y232270D01*
X250616Y232588D01*
X249792Y232696D01*
X248967Y232588D01*
X248199Y232270D01*
X247539Y231763D01*
X247032Y231103D01*
X246714Y230335D01*
X246644Y229806D01*
X246111Y229585D01*
X245688Y229910D01*
X244919Y230228D01*
X244094Y230336D01*
X243270Y230228D01*
X242501Y229910D01*
X241841Y229403D01*
X241335Y228743D01*
X241017Y227975D01*
X240908Y227150D01*
X240978Y226621D01*
X240520Y226270D01*
X240027Y226474D01*
X239202Y226583D01*
X238377Y226474D01*
X237609Y226156D01*
X236949Y225649D01*
X236443Y224989D01*
X236124Y224221D01*
X236016Y223396D01*
X236124Y222571D01*
X236329Y222079D01*
X235977Y221621D01*
X235448Y221690D01*
X234624Y221582D01*
X233855Y221263D01*
X233195Y220757D01*
X232689Y220097D01*
X232370Y219329D01*
X232262Y218504D01*
X232370Y217679D01*
X232689Y216911D01*
X233195Y216251D01*
X233855Y215744D01*
X234624Y215426D01*
X235448Y215318D01*
X236273Y215426D01*
X237041Y215744D01*
X237701Y216251D01*
X238208Y216911D01*
X238526Y217679D01*
X238634Y218504D01*
X238526Y219329D01*
X238322Y219822D01*
X238673Y220280D01*
X239202Y220210D01*
X240027Y220319D01*
X240795Y220637D01*
X241455Y221143D01*
X241962Y221803D01*
X242280Y222571D01*
X242389Y223396D01*
X242319Y223925D01*
X242777Y224277D01*
X243270Y224073D01*
X244094Y223964D01*
X244919Y224073D01*
X245688Y224391D01*
X246348Y224897D01*
X246854Y225557D01*
X247172Y226325D01*
X247242Y226854D01*
X247775Y227075D01*
X248199Y226751D01*
X248967Y226432D01*
X249792Y226324D01*
X250616Y226432D01*
X251385Y226751D01*
X252045Y227257D01*
X252551Y227917D01*
X252620Y228083D01*
X257749D01*
X263853Y221978D01*
X263877Y221820D01*
X263818Y221411D01*
X263785Y221357D01*
X263393Y221057D01*
X262982Y220520D01*
X262723Y219896D01*
X262634Y219225D01*
X262723Y218555D01*
X262814Y218333D01*
X254896Y210415D01*
X254587Y209952D01*
X254478Y209405D01*
X254478Y209405D01*
Y192425D01*
Y181276D01*
X254074Y180966D01*
X253662Y180429D01*
X253403Y179804D01*
X253315Y179134D01*
X253403Y178463D01*
X253662Y177839D01*
X254074Y177302D01*
X254610Y176890D01*
X255235Y176631D01*
X255906Y176543D01*
X256576Y176631D01*
X257201Y176890D01*
X257737Y177302D01*
X258149Y177839D01*
X258408Y178463D01*
X258496Y179134D01*
X258408Y179804D01*
X258149Y180429D01*
X257737Y180966D01*
X257333Y181276D01*
Y190998D01*
X263283D01*
X263593Y190593D01*
X264130Y190182D01*
X264755Y189923D01*
X265425Y189834D01*
X266096Y189923D01*
X266721Y190182D01*
X267257Y190593D01*
X267669Y191130D01*
X267928Y191755D01*
X268016Y192425D01*
X267928Y193096D01*
X267669Y193720D01*
X267257Y194257D01*
X266943Y194498D01*
X267113Y194998D01*
X271425D01*
X271425Y194998D01*
X271972Y195106D01*
X272434Y195416D01*
X272789Y195771D01*
X273263Y195537D01*
X273177Y194882D01*
X273285Y194057D01*
X273489Y193564D01*
X273138Y193106D01*
X272609Y193176D01*
X271784Y193067D01*
X271016Y192749D01*
X270356Y192243D01*
X269849Y191583D01*
X269531Y190814D01*
X269423Y189990D01*
X269492Y189461D01*
X269034Y189109D01*
X268541Y189313D01*
X267717Y189422D01*
X266892Y189313D01*
X266123Y188995D01*
X265463Y188489D01*
X264957Y187829D01*
X264639Y187060D01*
X264569Y186531D01*
X264036Y186310D01*
X263613Y186635D01*
X262844Y186953D01*
X262019Y187062D01*
X261195Y186953D01*
X260426Y186635D01*
X259766Y186129D01*
X259260Y185469D01*
X258942Y184700D01*
X258833Y183876D01*
X258942Y183051D01*
X259260Y182283D01*
X259766Y181623D01*
X260426Y181116D01*
X261195Y180798D01*
X262019Y180690D01*
X262844Y180798D01*
X263613Y181116D01*
X264272Y181623D01*
X264779Y182283D01*
X265097Y183051D01*
X265167Y183580D01*
X265700Y183801D01*
X266123Y183476D01*
X266892Y183158D01*
X267717Y183049D01*
X268541Y183158D01*
X269310Y183476D01*
X269970Y183983D01*
X270476Y184643D01*
X270794Y185411D01*
X270903Y186236D01*
X270833Y186765D01*
X271291Y187116D01*
X271784Y186912D01*
X272609Y186803D01*
X273433Y186912D01*
X274202Y187230D01*
X274862Y187737D01*
X275368Y188397D01*
X275687Y189165D01*
X275795Y189990D01*
X275687Y190814D01*
X275482Y191307D01*
X275834Y191765D01*
X276363Y191696D01*
X277187Y191804D01*
X277956Y192122D01*
X278616Y192629D01*
X279122Y193289D01*
X279440Y194057D01*
X279549Y194882D01*
X279440Y195707D01*
X279122Y196475D01*
X278616Y197135D01*
X277956Y197641D01*
X277187Y197960D01*
X276363Y198068D01*
X275708Y197982D01*
X275474Y198456D01*
X277372Y200353D01*
X277682Y200817D01*
X277790Y201363D01*
X277790Y201363D01*
Y209258D01*
X278290Y209677D01*
X278723Y209620D01*
X279547Y209729D01*
X280316Y210047D01*
X280976Y210554D01*
X281482Y211214D01*
X281800Y211982D01*
X281909Y212807D01*
X281800Y213631D01*
X281482Y214400D01*
X280976Y215060D01*
X280316Y215566D01*
X279547Y215884D01*
X278723Y215993D01*
X277898Y215884D01*
X277130Y215566D01*
X276470Y215060D01*
X275963Y214400D01*
X275645Y213631D01*
X275536Y212807D01*
X275645Y211982D01*
X275714Y211816D01*
X275354Y211456D01*
X275044Y210993D01*
X274935Y210447D01*
X274935Y210447D01*
Y201954D01*
X271916Y198934D01*
X270834Y197853D01*
X262567D01*
X262257Y198257D01*
X261720Y198669D01*
X261096Y198928D01*
X260425Y199016D01*
X259755Y198928D01*
X259130Y198669D01*
X258593Y198257D01*
X258182Y197721D01*
X257923Y197096D01*
X257835Y196425D01*
X257923Y195755D01*
X258182Y195130D01*
X258593Y194593D01*
X258907Y194353D01*
X258737Y193853D01*
X257333D01*
Y208814D01*
X265162Y216643D01*
X265225Y216634D01*
X265896Y216723D01*
X266521Y216982D01*
X267057Y217393D01*
X267469Y217930D01*
X267728Y218555D01*
X267787Y219002D01*
X268303Y219193D01*
X270080Y217416D01*
X270080Y217416D01*
X270543Y217106D01*
X271089Y216998D01*
X271089Y216998D01*
X273925D01*
X273925Y216998D01*
X274471Y217106D01*
X274935Y217416D01*
X280501Y222982D01*
X317740D01*
X318050Y222578D01*
X318587Y222166D01*
X319211Y221907D01*
X319882Y221819D01*
X320552Y221907D01*
X321177Y222166D01*
X321714Y222578D01*
X322126Y223114D01*
X322362Y223686D01*
X322448Y223760D01*
X322911Y223912D01*
X322998Y223852D01*
Y205016D01*
X314931Y196949D01*
X314425Y197016D01*
X313755Y196928D01*
X313130Y196669D01*
X312593Y196257D01*
X312182Y195721D01*
X311923Y195096D01*
X311835Y194425D01*
X311923Y193755D01*
X312182Y193130D01*
X312593Y192593D01*
X313130Y192182D01*
X313755Y191923D01*
X314425Y191834D01*
X315096Y191923D01*
X315721Y192182D01*
X316257Y192593D01*
X316669Y193130D01*
X316928Y193755D01*
X317016Y194425D01*
X316949Y194931D01*
X325434Y203416D01*
X325434Y203416D01*
X325744Y203879D01*
X325853Y204425D01*
X325853Y204425D01*
Y224925D01*
X325853Y224925D01*
X325744Y225471D01*
X325434Y225935D01*
X325434Y225935D01*
X321935Y229434D01*
X321472Y229744D01*
X320925Y229853D01*
X320925Y229853D01*
X308549D01*
X308307Y230353D01*
X308422Y230498D01*
X322334D01*
X335566Y217266D01*
X335498Y216925D01*
X335606Y216379D01*
X335916Y215916D01*
X335998Y215834D01*
Y200567D01*
X335593Y200257D01*
X335182Y199721D01*
X334923Y199096D01*
X334835Y198425D01*
X334923Y197755D01*
X335182Y197130D01*
X335593Y196593D01*
X336130Y196182D01*
X336755Y195923D01*
X337425Y195835D01*
X338096Y195923D01*
X338720Y196182D01*
X339257Y196593D01*
X339669Y197130D01*
X339928Y197755D01*
X340016Y198425D01*
X339928Y199096D01*
X339669Y199721D01*
X339257Y200257D01*
X338853Y200567D01*
Y216425D01*
X338853Y216425D01*
X338753Y216925D01*
X338853Y217425D01*
X338744Y217971D01*
X338435Y218435D01*
X338435Y218435D01*
X323935Y232934D01*
X323471Y233244D01*
X322925Y233353D01*
X322925Y233353D01*
X308821D01*
X308669Y233720D01*
X308456Y233998D01*
X308703Y234498D01*
X335925D01*
X335925Y234498D01*
X336472Y234606D01*
X336914Y234902D01*
X337425Y234835D01*
X338096Y234923D01*
X338720Y235182D01*
X339257Y235593D01*
X339669Y236130D01*
X339928Y236755D01*
X340016Y237425D01*
X339928Y238096D01*
X339669Y238720D01*
X339257Y239257D01*
X338720Y239669D01*
X338096Y239928D01*
X337425Y240016D01*
D02*
G37*
G36*
X388110Y232063D02*
X386720Y231880D01*
X385425Y231344D01*
X385222Y231188D01*
X384940Y231205D01*
X384615Y231352D01*
X384601Y231384D01*
X384528Y231415D01*
X384481Y231479D01*
X384306Y231507D01*
X384142Y231575D01*
X352078D01*
X351915Y231507D01*
X351740Y231479D01*
X351693Y231415D01*
X351619Y231384D01*
X351606Y231352D01*
X351280Y231205D01*
X350998Y231188D01*
X350795Y231344D01*
X349500Y231880D01*
X348110Y232063D01*
X346720Y231880D01*
X345425Y231344D01*
X344313Y230490D01*
X343459Y229378D01*
X342923Y228083D01*
X342740Y226693D01*
X342923Y225303D01*
X343297Y224401D01*
X343216Y223846D01*
X343178Y223812D01*
X343056Y223727D01*
X342966Y223690D01*
X342924Y223590D01*
X342843Y223518D01*
X342833Y223369D01*
X342776Y223231D01*
Y190155D01*
X342833Y190017D01*
X342843Y189868D01*
X342924Y189796D01*
X342966Y189696D01*
X343056Y189658D01*
X343178Y189574D01*
X343216Y189540D01*
X343297Y188985D01*
X342923Y188083D01*
X342740Y186693D01*
X342923Y185303D01*
X343459Y184008D01*
X344313Y182896D01*
X345425Y182042D01*
X346720Y181506D01*
X348110Y181323D01*
X348253Y181205D01*
X348274Y180883D01*
X348376Y180677D01*
X348463Y180466D01*
X348484Y180457D01*
X348494Y180437D01*
X348711Y180363D01*
X348923Y180276D01*
X387298D01*
X387509Y180363D01*
X387726Y180437D01*
X387736Y180457D01*
X387757Y180466D01*
X387845Y180677D01*
X387946Y180883D01*
X387967Y181205D01*
X388110Y181323D01*
X389500Y181506D01*
X390795Y182042D01*
X391908Y182896D01*
X392761Y184008D01*
X393298Y185303D01*
X393481Y186693D01*
X393298Y188083D01*
X392761Y189378D01*
X391908Y190490D01*
X391394Y190885D01*
X391384Y191372D01*
X391457Y191547D01*
X391562Y191704D01*
X391549Y191770D01*
X391575Y191831D01*
Y221555D01*
X391549Y221616D01*
X391562Y221681D01*
X391457Y221839D01*
X391384Y222014D01*
X391394Y222501D01*
X391908Y222896D01*
X392761Y224008D01*
X393298Y225303D01*
X393481Y226693D01*
X393298Y228083D01*
X392761Y229378D01*
X391908Y230490D01*
X390795Y231344D01*
X389500Y231880D01*
X388110Y232063D01*
D02*
G37*
%LPD*%
G36*
X384263Y230425D02*
X383459Y229378D01*
X382923Y228083D01*
X382806Y227193D01*
X388110D01*
Y226693D01*
X388610D01*
Y221388D01*
X389500Y221506D01*
X390425Y221889D01*
X390925Y221555D01*
Y191831D01*
X390425Y191497D01*
X389500Y191880D01*
X388610Y191997D01*
Y186693D01*
X388110D01*
Y186193D01*
X382806D01*
X382923Y185303D01*
X383459Y184008D01*
X384313Y182896D01*
X385425Y182042D01*
X386720Y181506D01*
X387331Y181425D01*
X387298Y180925D01*
X348923D01*
X348890Y181425D01*
X349500Y181506D01*
X350795Y182042D01*
X351908Y182896D01*
X352761Y184008D01*
X353298Y185303D01*
X353415Y186193D01*
X348110D01*
Y186693D01*
X347610D01*
Y191997D01*
X346720Y191880D01*
X345425Y191344D01*
X344313Y190490D01*
X343925Y189985D01*
X343425Y190155D01*
Y223231D01*
X343925Y223401D01*
X344313Y222896D01*
X345425Y222042D01*
X346720Y221506D01*
X347610Y221388D01*
Y226693D01*
X348110D01*
Y227193D01*
X353415D01*
X353298Y228083D01*
X352761Y229378D01*
X351958Y230425D01*
X352078Y230925D01*
X384142D01*
X384263Y230425D01*
D02*
G37*
G36*
X159853D02*
X159050Y229378D01*
X158513Y228083D01*
X158396Y227193D01*
X163701D01*
Y226693D01*
X164201D01*
Y221388D01*
X165091Y221506D01*
X166386Y222042D01*
X167498Y222896D01*
X167925Y223452D01*
X168425Y223282D01*
Y190104D01*
X167925Y189934D01*
X167498Y190490D01*
X166386Y191344D01*
X165091Y191880D01*
X164201Y191997D01*
Y186693D01*
X163701D01*
Y186193D01*
X158396D01*
X158513Y185303D01*
X159050Y184008D01*
X159153Y183874D01*
X158932Y183425D01*
X128470D01*
X128249Y183874D01*
X128352Y184008D01*
X128888Y185303D01*
X129005Y186193D01*
X123701D01*
Y186693D01*
X123201D01*
Y191997D01*
X122311Y191880D01*
X121425Y191513D01*
X120925Y191848D01*
Y221538D01*
X121425Y221872D01*
X122311Y221506D01*
X123201Y221388D01*
Y226693D01*
X123701D01*
Y227193D01*
X129005D01*
X128888Y228083D01*
X128352Y229378D01*
X127548Y230425D01*
X127669Y230925D01*
X159733D01*
X159853Y230425D01*
D02*
G37*
%LPC*%
G36*
X163201Y191997D02*
X162311Y191880D01*
X161016Y191344D01*
X159903Y190490D01*
X159050Y189378D01*
X158513Y188083D01*
X158396Y187193D01*
X163201D01*
Y191997D01*
D02*
G37*
G36*
X353415Y226193D02*
X348610D01*
Y221388D01*
X349500Y221506D01*
X350795Y222042D01*
X351908Y222896D01*
X352761Y224008D01*
X353298Y225303D01*
X353415Y226193D01*
D02*
G37*
G36*
X129005D02*
X124201D01*
Y221388D01*
X125091Y221506D01*
X126386Y222042D01*
X127498Y222896D01*
X128352Y224008D01*
X128888Y225303D01*
X129005Y226193D01*
D02*
G37*
G36*
X387610D02*
X382806D01*
X382923Y225303D01*
X383459Y224008D01*
X384313Y222896D01*
X385425Y222042D01*
X386720Y221506D01*
X387610Y221388D01*
Y226193D01*
D02*
G37*
G36*
X348610Y191997D02*
Y187193D01*
X353415D01*
X353298Y188083D01*
X352761Y189378D01*
X351908Y190490D01*
X350795Y191344D01*
X349500Y191880D01*
X348610Y191997D01*
D02*
G37*
G36*
X163201Y226193D02*
X158396D01*
X158513Y225303D01*
X159050Y224008D01*
X159903Y222896D01*
X161016Y222042D01*
X162311Y221506D01*
X163201Y221388D01*
Y226193D01*
D02*
G37*
G36*
X368110Y211666D02*
X366823Y211497D01*
X365624Y211000D01*
X364594Y210209D01*
X363803Y209180D01*
X363306Y207980D01*
X363137Y206693D01*
X363306Y205406D01*
X363803Y204206D01*
X364594Y203176D01*
X365624Y202386D01*
X366823Y201889D01*
X368110Y201720D01*
X369397Y201889D01*
X370597Y202386D01*
X371627Y203176D01*
X372417Y204206D01*
X372914Y205406D01*
X373083Y206693D01*
X372914Y207980D01*
X372417Y209180D01*
X371627Y210209D01*
X370597Y211000D01*
X369397Y211497D01*
X368110Y211666D01*
D02*
G37*
G36*
X143701Y219259D02*
X141735Y219104D01*
X139818Y218644D01*
X137996Y217889D01*
X136314Y216859D01*
X134815Y215579D01*
X133535Y214079D01*
X132504Y212398D01*
X131750Y210576D01*
X131289Y208659D01*
X131134Y206693D01*
X131289Y204727D01*
X131750Y202810D01*
X132504Y200988D01*
X133535Y199307D01*
X134815Y197807D01*
X134815Y197807D01*
X136314Y196527D01*
X137996Y195496D01*
X139818Y194742D01*
X141735Y194281D01*
X143701Y194127D01*
X145667Y194281D01*
X147584Y194742D01*
X149406Y195496D01*
X151087Y196527D01*
X152586Y197807D01*
X153867Y199307D01*
X154897Y200988D01*
X155652Y202810D01*
X156112Y204727D01*
X156267Y206693D01*
X156112Y208659D01*
X155652Y210576D01*
X154897Y212398D01*
X153867Y214079D01*
X152586Y215579D01*
X152586Y215579D01*
X151087Y216859D01*
X149406Y217889D01*
X147584Y218644D01*
X145667Y219104D01*
X143701Y219259D01*
D02*
G37*
G36*
X387610Y191997D02*
X386720Y191880D01*
X385425Y191344D01*
X384313Y190490D01*
X383459Y189378D01*
X382923Y188083D01*
X382806Y187193D01*
X387610D01*
Y191997D01*
D02*
G37*
G36*
X124201D02*
Y187193D01*
X129005D01*
X128888Y188083D01*
X128352Y189378D01*
X127498Y190490D01*
X126386Y191344D01*
X125091Y191880D01*
X124201Y191997D01*
D02*
G37*
%LPD*%
D18*
X337425Y198425D02*
Y216425D01*
X336925Y216925D02*
X337425Y216425D01*
X336925Y216925D02*
X337425Y217425D01*
X322925Y231925D02*
X337425Y217425D01*
X270925Y235925D02*
X335925D01*
X269425Y234425D02*
X270925Y235925D01*
X268925Y234425D02*
X269425D01*
X274925Y228425D02*
X320925D01*
X268925Y234425D02*
X274925Y228425D01*
X314425Y194425D02*
X324425Y204425D01*
Y224925D01*
X320925Y228425D02*
X324425Y224925D01*
X335925Y235925D02*
X337425Y237425D01*
X265059Y222791D02*
X266723D01*
X258340Y229510D02*
X265059Y222791D01*
X249792Y229510D02*
X258340D01*
X266723Y222791D02*
X271089Y218425D01*
X255906Y209405D02*
X265225Y218725D01*
Y219225D01*
X276363Y210447D02*
X278723Y212807D01*
X255906Y192425D02*
X265425D01*
X255906Y179134D02*
Y192425D01*
Y209405D01*
X271089Y218425D02*
X273925D01*
X279909Y224410D01*
X319882D01*
X307925Y231925D02*
X322925D01*
X305425Y232425D02*
X306425Y233425D01*
X307925Y231925D01*
X306925Y232925D02*
X307925Y231925D01*
X276425D02*
X307925D01*
X260425Y196425D02*
X271425D01*
X276363Y201363D02*
Y210447D01*
X273320Y197925D02*
X276363Y194882D01*
X272925Y197925D02*
X273320D01*
X271425Y196425D02*
X272925Y197925D01*
X276363Y201363D01*
X271425Y172925D02*
X283925D01*
D21*
X117126Y314961D02*
G03*
X98425Y296260I0J-18701D01*
G01*
X413386D02*
G03*
X394685Y314961I-18701J0D01*
G01*
Y98425D02*
G03*
X413386Y117126I0J18701D01*
G01*
X98425D02*
G03*
X117126Y98425I18701J0D01*
G01*
X98425Y117126D02*
Y296260D01*
X117126Y98425D02*
X394685D01*
X117126Y314961D02*
X394685D01*
X413386Y117126D02*
Y296260D01*
D22*
X143701Y206693D02*
D03*
X368110D02*
D03*
D23*
X163701Y226693D02*
D03*
Y186693D02*
D03*
X123701D02*
D03*
Y226693D02*
D03*
X388110Y186693D02*
D03*
Y226693D02*
D03*
X348110D02*
D03*
Y186693D02*
D03*
D24*
X214268Y229929D02*
D03*
X204425D02*
D03*
X194583D02*
D03*
X214268Y242921D02*
D03*
X204425D02*
D03*
X194583D02*
D03*
D25*
X267717Y186236D02*
D03*
X272609Y189990D02*
D03*
X276363Y194882D02*
D03*
X278723Y212807D02*
D03*
X272609Y223396D02*
D03*
X267717Y227150D02*
D03*
X244094Y227150D02*
D03*
X239202Y223396D02*
D03*
X235448Y218504D02*
D03*
X233088Y200579D02*
D03*
X239202Y189990D02*
D03*
X244094Y186236D02*
D03*
X262019Y183876D02*
D03*
X249792Y229510D02*
D03*
D26*
X117126Y117126D02*
D03*
X394685D02*
D03*
Y296260D02*
D03*
X117126D02*
D03*
D27*
X337425Y198425D02*
D03*
X268925Y234425D02*
D03*
X314425Y194425D02*
D03*
X337425Y237425D02*
D03*
X112205Y137795D02*
D03*
Y157480D02*
D03*
Y177165D02*
D03*
Y196850D02*
D03*
Y216535D02*
D03*
Y236221D02*
D03*
Y255906D02*
D03*
Y275590D02*
D03*
X137795Y112205D02*
D03*
X157480D02*
D03*
X177165D02*
D03*
X196850D02*
D03*
X216535D02*
D03*
X236221D02*
D03*
X255906D02*
D03*
X275590D02*
D03*
X295276D02*
D03*
X314961D02*
D03*
X334646D02*
D03*
X354331D02*
D03*
X374016D02*
D03*
X399606Y137795D02*
D03*
Y157480D02*
D03*
Y177165D02*
D03*
Y196850D02*
D03*
Y216535D02*
D03*
Y236221D02*
D03*
Y255906D02*
D03*
Y275590D02*
D03*
X157480Y301181D02*
D03*
X177165D02*
D03*
X196850D02*
D03*
X216535D02*
D03*
X236221D02*
D03*
X255906D02*
D03*
X275590D02*
D03*
X295276D02*
D03*
X314961D02*
D03*
X334646D02*
D03*
X354331D02*
D03*
X137795D02*
D03*
X374016D02*
D03*
X319882Y224410D02*
D03*
X265225Y219225D02*
D03*
X255906Y179134D02*
D03*
X260425Y196425D02*
D03*
X265425Y192425D02*
D03*
X283925Y172925D02*
D03*
X306425Y232425D02*
D03*
X276425Y231925D02*
D03*
X271425Y172925D02*
D03*
M02*
